<svg width="88" height="15" viewBox="0 0 88 15" fill="none" xmlns="http://www.w3.org/2000/svg">
<path d="M15 7.5C15 9.3125 15 11.0938 15 12.9062C15 13.9688 14.3125 14.8125 13.2812 14.9688C13.1562 15 13.0312 15 12.9062 15C11.9375 15 10.9688 15 10 15C9.84375 15 9.75 14.9688 9.75 14.7812C9.75 13.125 9.75 11.5 9.75 9.84375C9.75 9.6875 9.78125 9.625 9.96875 9.625C10.5 9.625 11 9.625 11.5312 9.625C11.8125 9.625 11.9375 9.53125 11.9688 9.25C12.0312 8.75 12.0937 8.25 12.1562 7.75C12.1875 7.40625 12.0625 7.25 11.7188 7.25C11.1562 7.25 10.5625 7.25 10 7.25C9.8125 7.25 9.75 7.21875 9.75 7.03125C9.75 6.59375 9.75 6.15625 9.75 5.71875C9.75 5.0625 10.0312 4.78125 10.6875 4.71875C11 4.6875 11.3438 4.71875 11.6562 4.71875C11.9375 4.71875 12.0625 4.59375 12.0625 4.3125C12.0625 3.875 12.0625 3.4375 12.0625 3C12.0625 2.71875 11.9687 2.625 11.6875 2.625C11.0625 2.625 10.4375 2.5625 9.8125 2.65625C8.3125 2.875 7.46875 3.9375 7.4375 5.5C7.4375 6 7.4375 6.53125 7.4375 7.03125C7.4375 7.1875 7.40625 7.25 7.21875 7.25C6.875 7.25 6.5 7.25 6.15625 7.25C5.84375 7.25 5.71875 7.375 5.71875 7.65625C5.71875 8.1875 5.71875 8.71875 5.71875 9.25C5.71875 9.5 5.84375 9.59375 6.09375 9.625C6.46875 9.625 6.875 9.625 7.25 9.625C7.375 9.625 7.4375 9.65625 7.4375 9.78125C7.4375 11.4688 7.4375 13.125 7.4375 14.8125C7.4375 14.9375 7.375 14.9688 7.25 14.9688C5.5 14.9688 3.71875 14.9688 1.96875 14.9688C0.84375 14.9688 0 14.0625 0 12.9375C0 9.3125 0 5.65625 0 2.03125C0 0.90625 0.875 0 2.03125 0C5.6875 0 9.3125 0 12.9688 0C14.0625 0 14.9687 0.84375 14.9687 1.9375C15.0312 3.8125 15 5.65625 15 7.5Z" fill="white"/>
<path d="M28.196 4.95331V6.80479H31.7344V8.90313H28.196V12.4004H26.0154V2.89612H31.7755V4.99446H28.196V4.95331Z" fill="white"/>
<path d="M40.0043 5.61173V12.4005H37.9471V11.7422C37.4945 12.277 36.8362 12.5651 35.931 12.5651C34.1618 12.5651 32.6807 11.0016 32.6807 8.98553C32.6807 6.96948 34.1618 5.40601 35.931 5.40601C36.8362 5.40601 37.4945 5.73516 37.9471 6.22888V5.57058H40.0043V5.61173ZM37.9471 8.98553C37.9471 7.95693 37.2888 7.33977 36.3425 7.33977C35.3962 7.33977 34.7379 7.99807 34.7379 8.98553C34.7379 9.97298 35.4373 10.6313 36.3425 10.6313C37.2476 10.6313 37.9471 10.0141 37.9471 8.98553Z" fill="white"/>
<path d="M41.1564 8.98553C41.1564 6.96948 42.6787 5.40601 44.7359 5.40601C46.0525 5.40601 47.2045 6.10545 47.8217 7.13405L46.0525 8.16265C45.8056 7.66892 45.3531 7.42206 44.7359 7.42206C43.8719 7.42206 43.2136 8.08036 43.2136 8.98553C43.2136 9.89069 43.8719 10.549 44.7359 10.549C45.3531 10.549 45.8468 10.261 46.0525 9.80841L47.8217 10.837C47.2457 11.9067 46.0936 12.6062 44.7359 12.6062C42.6787 12.565 41.1564 11.0016 41.1564 8.98553Z" fill="white"/>
<path d="M51.936 10.7547C52.512 10.7547 52.9646 10.549 53.2526 10.2198L54.8984 11.1662C54.2401 12.0713 53.2115 12.5651 51.936 12.5651C49.6319 12.5651 48.1919 11.0016 48.1919 8.98553C48.1919 6.96948 49.6731 5.40601 51.8126 5.40601C53.7875 5.40601 55.2687 6.92833 55.2687 8.98553C55.2687 9.27354 55.2275 9.56154 55.1864 9.80841H50.3725C50.5782 10.5079 51.1954 10.7547 51.936 10.7547ZM53.2115 8.28608C53.0057 7.50435 52.3886 7.21634 51.7714 7.21634C50.9897 7.21634 50.496 7.58663 50.2902 8.28608H53.2115Z" fill="white"/>
<path d="M63.6621 8.98542C63.6621 11.0015 62.1809 12.5649 60.4118 12.5649C59.5066 12.5649 58.8483 12.2358 58.3957 11.7421V12.4004H56.3385V2.89612H58.3957V6.26992C58.8483 5.73505 59.5066 5.44704 60.4118 5.44704C62.2221 5.4059 63.6621 6.96937 63.6621 8.98542ZM61.6461 8.98542C61.6461 7.95682 60.9466 7.33966 60.0415 7.33966C59.1363 7.33966 58.4368 7.99797 58.4368 8.98542C58.4368 9.97287 59.0951 10.6312 60.0415 10.6312C60.9878 10.6312 61.6461 10.014 61.6461 8.98542Z" fill="white"/>
<path d="M64.485 8.98553C64.485 6.96948 66.0896 5.40601 68.0645 5.40601C70.0394 5.40601 71.644 6.96948 71.644 8.98553C71.644 11.0016 70.0394 12.5651 68.0645 12.5651C66.0896 12.5651 64.485 11.0016 64.485 8.98553ZM69.6691 8.98553C69.6691 8.03922 68.9697 7.38091 68.1057 7.38091C67.2416 7.38091 66.5422 8.03922 66.5422 8.98553C66.5422 9.93184 67.2416 10.5901 68.1057 10.5901C68.9697 10.5901 69.6691 9.97298 69.6691 8.98553Z" fill="white"/>
<path d="M72.5082 8.98553C72.5082 6.96948 74.1128 5.40601 76.0877 5.40601C78.0626 5.40601 79.6672 6.96948 79.6672 8.98553C79.6672 11.0016 78.0626 12.5651 76.0877 12.5651C74.1128 12.5651 72.5082 11.0016 72.5082 8.98553ZM77.6512 8.98553C77.6512 8.03922 76.9929 7.38091 76.0877 7.38091C75.1825 7.38091 74.5242 8.03922 74.5242 8.98553C74.5242 9.93184 75.2237 10.5901 76.0877 10.5901C76.9517 10.5901 77.6512 9.97298 77.6512 8.98553Z" fill="white"/>
<path d="M85.0569 12.4004L82.8763 9.39686V12.4004H80.8191V2.89612H82.8763V8.57398L84.9335 5.61162H87.3198L84.8512 9.02656L87.4021 12.4415L85.0569 12.4004Z" fill="white"/>
</svg>
